<?xml version="1.0" encoding="UTF-8"?>
<svg xmlns="http://www.w3.org/2000/svg" xmlns:xlink="http://www.w3.org/1999/xlink" width="396" height="252" viewBox="0 0 396 252">
<defs>
<g>
<g id="glyph-0-0">
<path d="M 1.0625 -9.039062 C 1.0625 -11.203125 1.285156 -12.949219 1.730469 -14.269531 C 2.175781 -15.589844 2.839844 -16.609375 3.71875 -17.324219 C 4.597656 -18.042969 5.703125 -18.398438 7.039062 -18.398438 C 8.019531 -18.398438 8.882812 -18.203125 9.625 -17.804688 C 10.367188 -17.410156 10.980469 -16.839844 11.460938 -16.09375 C 11.945312 -15.347656 12.324219 -14.441406 12.601562 -13.367188 C 12.875 -12.296875 13.011719 -10.855469 13.011719 -9.039062 C 13.011719 -6.886719 12.792969 -5.152344 12.351562 -3.832031 C 11.910156 -2.511719 11.246094 -1.488281 10.367188 -0.769531 C 9.488281 -0.046875 8.378906 0.3125 7.039062 0.3125 C 5.269531 0.3125 3.882812 -0.320312 2.875 -1.585938 C 1.667969 -3.113281 1.0625 -5.597656 1.0625 -9.039062 M 3.375 -9.039062 C 3.375 -6.027344 3.726562 -4.027344 4.429688 -3.03125 C 5.136719 -2.035156 6.003906 -1.539062 7.039062 -1.539062 C 8.070312 -1.539062 8.941406 -2.039062 9.644531 -3.039062 C 10.347656 -4.039062 10.699219 -6.039062 10.699219 -9.039062 C 10.699219 -12.054688 10.347656 -14.058594 9.644531 -15.050781 C 8.941406 -16.042969 8.0625 -16.539062 7.011719 -16.539062 C 5.980469 -16.539062 5.152344 -16.101562 4.539062 -15.226562 C 3.761719 -14.109375 3.375 -12.046875 3.375 -9.039062 Z M 3.375 -9.039062 "/>
</g>
<g id="glyph-0-1">
<path d="M 2.324219 0 L 2.324219 -2.5625 L 4.886719 -2.5625 L 4.886719 0 Z M 2.324219 0 "/>
</g>
<g id="glyph-0-2">
<path d="M 12.886719 -2.164062 L 12.886719 0 L 0.773438 0 C 0.757812 -0.542969 0.847656 -1.0625 1.039062 -1.5625 C 1.347656 -2.386719 1.839844 -3.199219 2.519531 -4 C 3.199219 -4.800781 4.179688 -5.726562 5.460938 -6.773438 C 7.453125 -8.410156 8.800781 -9.703125 9.5 -10.65625 C 10.199219 -11.609375 10.550781 -12.511719 10.550781 -13.363281 C 10.550781 -14.253906 10.230469 -15.007812 9.59375 -15.617188 C 8.957031 -16.230469 8.125 -16.539062 7.101562 -16.539062 C 6.015625 -16.539062 5.148438 -16.210938 4.5 -15.5625 C 3.851562 -14.914062 3.519531 -14.011719 3.511719 -12.863281 L 1.199219 -13.101562 C 1.359375 -14.824219 1.953125 -16.140625 2.988281 -17.042969 C 4.019531 -17.949219 5.410156 -18.398438 7.148438 -18.398438 C 8.910156 -18.398438 10.300781 -17.914062 11.324219 -16.9375 C 12.351562 -15.960938 12.863281 -14.753906 12.863281 -13.3125 C 12.863281 -12.578125 12.710938 -11.859375 12.414062 -11.148438 C 12.113281 -10.441406 11.613281 -9.695312 10.917969 -8.914062 C 10.222656 -8.128906 9.066406 -7.054688 7.449219 -5.6875 C 6.101562 -4.554688 5.234375 -3.785156 4.851562 -3.382812 C 4.464844 -2.976562 4.148438 -2.570312 3.898438 -2.164062 Z M 12.886719 -2.164062 "/>
</g>
<g id="glyph-0-3">
<path d="M 1.0625 -4.800781 L 3.425781 -5 C 3.601562 -3.851562 4.007812 -2.984375 4.644531 -2.40625 C 5.28125 -1.828125 6.050781 -1.539062 6.949219 -1.539062 C 8.035156 -1.539062 8.949219 -1.945312 9.699219 -2.761719 C 10.449219 -3.578125 10.824219 -4.664062 10.824219 -6.011719 C 10.824219 -7.296875 10.464844 -8.308594 9.742188 -9.050781 C 9.023438 -9.792969 8.078125 -10.164062 6.914062 -10.164062 C 6.1875 -10.164062 5.535156 -9.996094 4.949219 -9.667969 C 4.367188 -9.339844 3.910156 -8.914062 3.574219 -8.386719 L 1.460938 -8.664062 L 3.238281 -18.074219 L 12.351562 -18.074219 L 12.351562 -15.925781 L 5.039062 -15.925781 L 4.050781 -11 C 5.148438 -11.765625 6.304688 -12.148438 7.511719 -12.148438 C 9.113281 -12.148438 10.460938 -11.597656 11.5625 -10.488281 C 12.664062 -9.378906 13.210938 -7.953125 13.210938 -6.210938 C 13.210938 -4.554688 12.730469 -3.121094 11.761719 -1.914062 C 10.585938 -0.429688 8.984375 0.3125 6.949219 0.3125 C 5.285156 0.3125 3.921875 -0.152344 2.867188 -1.085938 C 1.816406 -2.019531 1.210938 -3.257812 1.0625 -4.800781 Z M 1.0625 -4.800781 "/>
</g>
<g id="glyph-0-4">
<path d="M 1.210938 -15.925781 L 1.210938 -18.085938 L 13.074219 -18.085938 L 13.074219 -16.335938 C 11.910156 -15.097656 10.753906 -13.445312 9.605469 -11.386719 C 8.460938 -9.328125 7.574219 -7.210938 6.949219 -5.039062 C 6.5 -3.503906 6.210938 -1.824219 6.085938 0 L 3.773438 0 C 3.800781 -1.441406 4.082031 -3.183594 4.625 -5.226562 C 5.167969 -7.265625 5.945312 -9.234375 6.957031 -11.132812 C 7.96875 -13.027344 9.046875 -14.625 10.1875 -15.925781 Z M 1.210938 -15.925781 "/>
</g>
<g id="glyph-0-5">
<path d="M 9.539062 0 L 7.289062 0 L 7.289062 -14.335938 C 6.746094 -13.820312 6.035156 -13.304688 5.15625 -12.789062 C 4.277344 -12.269531 3.488281 -11.882812 2.789062 -11.625 L 2.789062 -13.800781 C 4.046875 -14.390625 5.144531 -15.109375 6.085938 -15.949219 C 7.027344 -16.792969 7.695312 -17.609375 8.085938 -18.398438 L 9.539062 -18.398438 Z M 9.539062 0 "/>
</g>
<g id="glyph-0-6">
<path d="M 1.6875 0 L 1.6875 -13.273438 L 3.699219 -13.273438 L 3.699219 -11.414062 C 4.117188 -12.0625 4.671875 -12.585938 5.363281 -12.980469 C 6.054688 -13.378906 6.839844 -13.574219 7.726562 -13.574219 C 8.707031 -13.574219 9.515625 -13.371094 10.144531 -12.960938 C 10.773438 -12.554688 11.214844 -11.984375 11.476562 -11.25 C 12.523438 -12.800781 13.890625 -13.574219 15.574219 -13.574219 C 16.890625 -13.574219 17.902344 -13.210938 18.613281 -12.480469 C 19.320312 -11.753906 19.675781 -10.628906 19.675781 -9.113281 L 19.675781 0 L 17.4375 0 L 17.4375 -8.363281 C 17.4375 -9.261719 17.363281 -9.910156 17.21875 -10.304688 C 17.074219 -10.703125 16.808594 -11.019531 16.425781 -11.261719 C 16.042969 -11.503906 15.589844 -11.625 15.074219 -11.625 C 14.140625 -11.625 13.367188 -11.316406 12.75 -10.695312 C 12.132812 -10.074219 11.824219 -9.078125 11.824219 -7.710938 L 11.824219 0 L 9.574219 0 L 9.574219 -8.625 C 9.574219 -9.625 9.390625 -10.375 9.023438 -10.875 C 8.660156 -11.375 8.058594 -11.625 7.226562 -11.625 C 6.589844 -11.625 6.007812 -11.457031 5.46875 -11.125 C 4.929688 -10.792969 4.542969 -10.304688 4.300781 -9.664062 C 4.058594 -9.019531 3.9375 -8.097656 3.9375 -6.886719 L 3.9375 0 Z M 1.6875 0 "/>
</g>
<g id="glyph-0-7">
<path d="M 10.351562 -1.636719 C 9.515625 -0.929688 8.714844 -0.429688 7.945312 -0.136719 C 7.171875 0.152344 6.347656 0.300781 5.460938 0.300781 C 4.003906 0.300781 2.882812 -0.0546875 2.101562 -0.769531 C 1.316406 -1.480469 0.925781 -2.390625 0.925781 -3.5 C 0.925781 -4.148438 1.074219 -4.742188 1.367188 -5.28125 C 1.664062 -5.820312 2.050781 -6.25 2.53125 -6.574219 C 3.011719 -6.898438 3.550781 -7.144531 4.148438 -7.3125 C 4.589844 -7.429688 5.257812 -7.542969 6.148438 -7.648438 C 7.964844 -7.867188 9.304688 -8.125 10.164062 -8.425781 C 10.171875 -8.734375 10.175781 -8.929688 10.175781 -9.011719 C 10.175781 -9.929688 9.960938 -10.574219 9.539062 -10.949219 C 8.960938 -11.457031 8.109375 -11.710938 6.976562 -11.710938 C 5.917969 -11.710938 5.136719 -11.527344 4.632812 -11.15625 C 4.128906 -10.785156 3.753906 -10.128906 3.511719 -9.1875 L 1.3125 -9.488281 C 1.511719 -10.429688 1.839844 -11.191406 2.300781 -11.769531 C 2.757812 -12.347656 3.421875 -12.792969 4.289062 -13.105469 C 5.152344 -13.417969 6.160156 -13.574219 7.300781 -13.574219 C 8.433594 -13.574219 9.355469 -13.441406 10.0625 -13.175781 C 10.769531 -12.910156 11.292969 -12.574219 11.625 -12.167969 C 11.957031 -11.765625 12.191406 -11.253906 12.324219 -10.636719 C 12.398438 -10.253906 12.4375 -9.5625 12.4375 -8.5625 L 12.4375 -5.5625 C 12.4375 -3.472656 12.484375 -2.148438 12.582031 -1.59375 C 12.675781 -1.039062 12.867188 -0.507812 13.148438 0 L 10.800781 0 C 10.566406 -0.464844 10.417969 -1.011719 10.351562 -1.636719 M 10.164062 -6.664062 C 9.347656 -6.328125 8.121094 -6.046875 6.488281 -5.8125 C 5.5625 -5.679688 4.910156 -5.527344 4.523438 -5.363281 C 4.140625 -5.195312 3.847656 -4.953125 3.636719 -4.632812 C 3.429688 -4.308594 3.324219 -3.953125 3.324219 -3.5625 C 3.324219 -2.960938 3.550781 -2.460938 4.007812 -2.0625 C 4.460938 -1.664062 5.125 -1.460938 6 -1.460938 C 6.867188 -1.460938 7.636719 -1.652344 8.3125 -2.03125 C 8.988281 -2.410156 9.484375 -2.929688 9.800781 -3.585938 C 10.042969 -4.097656 10.164062 -4.847656 10.164062 -5.835938 Z M 10.164062 -6.664062 "/>
</g>
<g id="glyph-0-8">
<path d="M 2.226562 0 L 2.226562 -11.523438 L 0.238281 -11.523438 L 0.238281 -13.273438 L 2.226562 -13.273438 L 2.226562 -14.6875 C 2.226562 -15.578125 2.304688 -16.242188 2.460938 -16.675781 C 2.679688 -17.257812 3.058594 -17.730469 3.605469 -18.09375 C 4.152344 -18.457031 4.917969 -18.636719 5.898438 -18.636719 C 6.535156 -18.636719 7.234375 -18.5625 8 -18.414062 L 7.664062 -16.449219 C 7.195312 -16.535156 6.753906 -16.574219 6.335938 -16.574219 C 5.652344 -16.574219 5.171875 -16.429688 4.886719 -16.136719 C 4.605469 -15.847656 4.460938 -15.300781 4.460938 -14.5 L 4.460938 -13.273438 L 7.050781 -13.273438 L 7.050781 -11.523438 L 4.460938 -11.523438 L 4.460938 0 Z M 2.226562 0 "/>
</g>
<g id="glyph-0-9">
<path d="M 1.699219 -15.738281 L 1.699219 -18.324219 L 3.949219 -18.324219 L 3.949219 -15.738281 L 1.699219 -15.738281 M 1.699219 0 L 1.699219 -13.273438 L 3.949219 -13.273438 L 3.949219 0 Z M 1.699219 0 "/>
</g>
<g id="glyph-0-10">
<path d="M 5.375 0 L 0.324219 -13.273438 L 2.699219 -13.273438 L 5.550781 -5.324219 C 5.859375 -4.464844 6.140625 -3.574219 6.398438 -2.648438 C 6.601562 -3.351562 6.878906 -4.191406 7.238281 -5.175781 L 10.1875 -13.273438 L 12.5 -13.273438 L 7.476562 0 Z M 5.375 0 "/>
</g>
<g id="glyph-0-11">
<path d="M 1.6875 5.085938 L 1.6875 -13.273438 L 3.738281 -13.273438 L 3.738281 -11.550781 C 4.222656 -12.226562 4.765625 -12.730469 5.375 -13.070312 C 5.984375 -13.40625 6.722656 -13.574219 7.585938 -13.574219 C 8.722656 -13.574219 9.722656 -13.285156 10.585938 -12.699219 C 11.453125 -12.117188 12.109375 -11.292969 12.550781 -10.230469 C 12.992188 -9.167969 13.210938 -8.003906 13.210938 -6.738281 C 13.210938 -5.378906 12.96875 -4.15625 12.480469 -3.070312 C 11.992188 -1.980469 11.285156 -1.148438 10.355469 -0.570312 C 9.425781 0.0117188 8.449219 0.300781 7.425781 0.300781 C 6.675781 0.300781 6.003906 0.140625 5.40625 -0.175781 C 4.808594 -0.492188 4.320312 -0.890625 3.9375 -1.375 L 3.9375 5.085938 L 1.6875 5.085938 M 3.726562 -6.5625 C 3.726562 -4.855469 4.070312 -3.589844 4.761719 -2.773438 C 5.453125 -1.957031 6.292969 -1.550781 7.273438 -1.550781 C 8.273438 -1.550781 9.132812 -1.972656 9.84375 -2.820312 C 10.554688 -3.664062 10.914062 -4.976562 10.914062 -6.75 C 10.914062 -8.441406 10.566406 -9.707031 9.867188 -10.550781 C 9.171875 -11.390625 8.339844 -11.8125 7.375 -11.8125 C 6.417969 -11.8125 5.570312 -11.363281 4.832031 -10.46875 C 4.09375 -9.574219 3.726562 -8.269531 3.726562 -6.5625 Z M 3.726562 -6.5625 "/>
</g>
<g id="glyph-0-12">
<path d="M 0.851562 -6.636719 C 0.851562 -9.097656 1.535156 -10.917969 2.898438 -12.101562 C 4.042969 -13.082031 5.433594 -13.574219 7.074219 -13.574219 C 8.898438 -13.574219 10.390625 -12.976562 11.550781 -11.78125 C 12.707031 -10.585938 13.289062 -8.933594 13.289062 -6.824219 C 13.289062 -5.117188 13.03125 -3.773438 12.519531 -2.792969 C 12.007812 -1.816406 11.261719 -1.054688 10.28125 -0.511719 C 9.300781 0.0273438 8.234375 0.300781 7.074219 0.300781 C 5.214844 0.300781 3.714844 -0.296875 2.570312 -1.488281 C 1.421875 -2.679688 0.851562 -4.394531 0.851562 -6.636719 M 3.164062 -6.636719 C 3.164062 -4.9375 3.535156 -3.664062 4.273438 -2.820312 C 5.015625 -1.972656 5.949219 -1.550781 7.074219 -1.550781 C 8.191406 -1.550781 9.121094 -1.976562 9.863281 -2.824219 C 10.605469 -3.675781 10.976562 -4.972656 10.976562 -6.710938 C 10.976562 -8.355469 10.601562 -9.597656 9.855469 -10.445312 C 9.109375 -11.289062 8.183594 -11.710938 7.074219 -11.710938 C 5.949219 -11.710938 5.015625 -11.292969 4.273438 -10.449219 C 3.535156 -9.609375 3.164062 -8.335938 3.164062 -6.636719 Z M 3.164062 -6.636719 "/>
</g>
<g id="glyph-1-0">
<path d="M 3.074219 0 L 3.074219 -27.488281 L 6.710938 -27.488281 L 6.710938 -16.199219 L 21 -16.199219 L 21 -27.488281 L 24.636719 -27.488281 L 24.636719 0 L 21 0 L 21 -12.957031 L 6.710938 -12.957031 L 6.710938 0 Z M 3.074219 0 "/>
</g>
<g id="glyph-1-1">
<path d="M 12.414062 0 L 12.414062 -6.582031 L 0.488281 -6.582031 L 0.488281 -9.675781 L 13.03125 -27.488281 L 15.789062 -27.488281 L 15.789062 -9.675781 L 19.5 -9.675781 L 19.5 -6.582031 L 15.789062 -6.582031 L 15.789062 0 L 12.414062 0 M 12.414062 -9.675781 L 12.414062 -22.070312 L 3.804688 -9.675781 Z M 12.414062 -9.675781 "/>
</g>
<g id="glyph-1-2">
<path d="M 1.179688 -5.945312 L 4.519531 -6.46875 C 4.707031 -5.132812 5.226562 -4.105469 6.085938 -3.394531 C 6.941406 -2.679688 8.136719 -2.324219 9.675781 -2.324219 C 11.226562 -2.324219 12.375 -2.640625 13.125 -3.273438 C 13.875 -3.902344 14.25 -4.644531 14.25 -5.492188 C 14.25 -6.257812 13.917969 -6.855469 13.257812 -7.292969 C 12.792969 -7.59375 11.644531 -7.976562 9.804688 -8.4375 C 7.332031 -9.0625 5.617188 -9.601562 4.660156 -10.058594 C 3.703125 -10.515625 2.976562 -11.148438 2.484375 -11.953125 C 1.992188 -12.757812 1.742188 -13.648438 1.742188 -14.625 C 1.742188 -15.511719 1.945312 -16.335938 2.351562 -17.089844 C 2.757812 -17.847656 3.3125 -18.476562 4.011719 -18.976562 C 4.539062 -19.363281 5.253906 -19.691406 6.160156 -19.960938 C 7.066406 -20.226562 8.039062 -20.363281 9.074219 -20.363281 C 10.636719 -20.363281 12.007812 -20.136719 13.191406 -19.6875 C 14.371094 -19.238281 15.242188 -18.628906 15.804688 -17.859375 C 16.367188 -17.089844 16.757812 -16.0625 16.96875 -14.773438 L 13.667969 -14.324219 C 13.519531 -15.351562 13.085938 -16.148438 12.367188 -16.726562 C 11.648438 -17.300781 10.632812 -17.585938 9.320312 -17.585938 C 7.769531 -17.585938 6.664062 -17.332031 6 -16.820312 C 5.335938 -16.304688 5.007812 -15.707031 5.007812 -15.019531 C 5.007812 -14.582031 5.144531 -14.1875 5.417969 -13.835938 C 5.695312 -13.476562 6.125 -13.175781 6.710938 -12.9375 C 7.050781 -12.8125 8.042969 -12.523438 9.695312 -12.074219 C 12.082031 -11.4375 13.746094 -10.914062 14.691406 -10.507812 C 15.632812 -10.101562 16.375 -9.511719 16.914062 -8.738281 C 17.449219 -7.960938 17.71875 -7 17.71875 -5.851562 C 17.71875 -4.726562 17.390625 -3.664062 16.734375 -2.671875 C 16.078125 -1.679688 15.132812 -0.910156 13.894531 -0.367188 C 12.65625 0.179688 11.257812 0.449219 9.695312 0.449219 C 7.105469 0.449219 5.132812 -0.0859375 3.777344 -1.164062 C 2.421875 -2.238281 1.554688 -3.832031 1.179688 -5.945312 Z M 1.179688 -5.945312 "/>
</g>
</g>
<clipPath id="clip-0">
<path clip-rule="nonzero" d="M 80.113281 175 L 380.0625 175 L 380.0625 177 L 80.113281 177 Z M 80.113281 175 "/>
</clipPath>
<clipPath id="clip-1">
<path clip-rule="nonzero" d="M 80.113281 146 L 380.0625 146 L 380.0625 148 L 80.113281 148 Z M 80.113281 146 "/>
</clipPath>
<clipPath id="clip-2">
<path clip-rule="nonzero" d="M 80.113281 117 L 380.0625 117 L 380.0625 120 L 80.113281 120 Z M 80.113281 117 "/>
</clipPath>
<clipPath id="clip-3">
<path clip-rule="nonzero" d="M 80.113281 88 L 380.0625 88 L 380.0625 91 L 80.113281 91 Z M 80.113281 88 "/>
</clipPath>
<clipPath id="clip-4">
<path clip-rule="nonzero" d="M 80.113281 188 L 380.0625 188 L 380.0625 192 L 80.113281 192 Z M 80.113281 188 "/>
</clipPath>
<clipPath id="clip-5">
<path clip-rule="nonzero" d="M 80.113281 159 L 380.0625 159 L 380.0625 164 L 80.113281 164 Z M 80.113281 159 "/>
</clipPath>
<clipPath id="clip-6">
<path clip-rule="nonzero" d="M 80.113281 131 L 380.0625 131 L 380.0625 135 L 80.113281 135 Z M 80.113281 131 "/>
</clipPath>
<clipPath id="clip-7">
<path clip-rule="nonzero" d="M 80.113281 102 L 380.0625 102 L 380.0625 106 L 80.113281 106 Z M 80.113281 102 "/>
</clipPath>
<clipPath id="clip-8">
<path clip-rule="nonzero" d="M 80.113281 73 L 380.0625 73 L 380.0625 77 L 80.113281 77 Z M 80.113281 73 "/>
</clipPath>
<clipPath id="clip-9">
<path clip-rule="nonzero" d="M 113 69.449219 L 117 69.449219 L 117 196 L 113 196 Z M 113 69.449219 "/>
</clipPath>
<clipPath id="clip-10">
<path clip-rule="nonzero" d="M 170 69.449219 L 174 69.449219 L 174 196 L 170 196 Z M 170 69.449219 "/>
</clipPath>
<clipPath id="clip-11">
<path clip-rule="nonzero" d="M 228 69.449219 L 232 69.449219 L 232 196 L 228 196 Z M 228 69.449219 "/>
</clipPath>
<clipPath id="clip-12">
<path clip-rule="nonzero" d="M 286 69.449219 L 290 69.449219 L 290 196 L 286 196 Z M 286 69.449219 "/>
</clipPath>
<clipPath id="clip-13">
<path clip-rule="nonzero" d="M 343 69.449219 L 347 69.449219 L 347 196 L 343 196 Z M 343 69.449219 "/>
</clipPath>
</defs>
<rect x="-39.6" y="-25.2" width="475.2" height="302.4" fill="rgb(100%, 100%, 100%)" fill-opacity="1"/>
<rect x="-39.6" y="-25.2" width="475.2" height="302.4" fill="rgb(100%, 100%, 100%)" fill-opacity="1"/>
<g clip-path="url(#clip-0)">
<path fill="none" stroke-width="1.551969" stroke-linecap="butt" stroke-linejoin="round" stroke="rgb(92.156863%, 92.156863%, 92.156863%)" stroke-opacity="1" stroke-miterlimit="10" d="M 80.113281 175.867188 L 380.058594 175.867188 "/>
</g>
<g clip-path="url(#clip-1)">
<path fill="none" stroke-width="1.551969" stroke-linecap="butt" stroke-linejoin="round" stroke="rgb(92.156863%, 92.156863%, 92.156863%)" stroke-opacity="1" stroke-miterlimit="10" d="M 80.113281 147.105469 L 380.058594 147.105469 "/>
</g>
<g clip-path="url(#clip-2)">
<path fill="none" stroke-width="1.551969" stroke-linecap="butt" stroke-linejoin="round" stroke="rgb(92.156863%, 92.156863%, 92.156863%)" stroke-opacity="1" stroke-miterlimit="10" d="M 80.113281 118.34375 L 380.058594 118.34375 "/>
</g>
<g clip-path="url(#clip-3)">
<path fill="none" stroke-width="1.551969" stroke-linecap="butt" stroke-linejoin="round" stroke="rgb(92.156863%, 92.156863%, 92.156863%)" stroke-opacity="1" stroke-miterlimit="10" d="M 80.113281 89.582031 L 380.058594 89.582031 "/>
</g>
<g clip-path="url(#clip-4)">
<path fill="none" stroke-width="3.103937" stroke-linecap="butt" stroke-linejoin="round" stroke="rgb(92.156863%, 92.156863%, 92.156863%)" stroke-opacity="1" stroke-miterlimit="10" d="M 80.113281 190.25 L 380.058594 190.25 "/>
</g>
<g clip-path="url(#clip-5)">
<path fill="none" stroke-width="3.103937" stroke-linecap="butt" stroke-linejoin="round" stroke="rgb(92.156863%, 92.156863%, 92.156863%)" stroke-opacity="1" stroke-miterlimit="10" d="M 80.113281 161.488281 L 380.058594 161.488281 "/>
</g>
<g clip-path="url(#clip-6)">
<path fill="none" stroke-width="3.103937" stroke-linecap="butt" stroke-linejoin="round" stroke="rgb(92.156863%, 92.156863%, 92.156863%)" stroke-opacity="1" stroke-miterlimit="10" d="M 80.113281 132.726562 L 380.058594 132.726562 "/>
</g>
<g clip-path="url(#clip-7)">
<path fill="none" stroke-width="3.103937" stroke-linecap="butt" stroke-linejoin="round" stroke="rgb(92.156863%, 92.156863%, 92.156863%)" stroke-opacity="1" stroke-miterlimit="10" d="M 80.113281 103.964844 L 380.058594 103.964844 "/>
</g>
<g clip-path="url(#clip-8)">
<path fill="none" stroke-width="3.103937" stroke-linecap="butt" stroke-linejoin="round" stroke="rgb(92.156863%, 92.156863%, 92.156863%)" stroke-opacity="1" stroke-miterlimit="10" d="M 80.113281 75.203125 L 380.058594 75.203125 "/>
</g>
<g clip-path="url(#clip-9)">
<path fill="none" stroke-width="3.103937" stroke-linecap="butt" stroke-linejoin="round" stroke="rgb(92.156863%, 92.156863%, 92.156863%)" stroke-opacity="1" stroke-miterlimit="10" d="M 114.722656 196 L 114.722656 69.449219 "/>
</g>
<g clip-path="url(#clip-10)">
<path fill="none" stroke-width="3.103937" stroke-linecap="butt" stroke-linejoin="round" stroke="rgb(92.156863%, 92.156863%, 92.156863%)" stroke-opacity="1" stroke-miterlimit="10" d="M 172.402344 196 L 172.402344 69.449219 "/>
</g>
<g clip-path="url(#clip-11)">
<path fill="none" stroke-width="3.103937" stroke-linecap="butt" stroke-linejoin="round" stroke="rgb(92.156863%, 92.156863%, 92.156863%)" stroke-opacity="1" stroke-miterlimit="10" d="M 230.085938 196 L 230.085938 69.449219 "/>
</g>
<g clip-path="url(#clip-12)">
<path fill="none" stroke-width="3.103937" stroke-linecap="butt" stroke-linejoin="round" stroke="rgb(92.156863%, 92.156863%, 92.156863%)" stroke-opacity="1" stroke-miterlimit="10" d="M 287.769531 196 L 287.769531 69.449219 "/>
</g>
<g clip-path="url(#clip-13)">
<path fill="none" stroke-width="3.103937" stroke-linecap="butt" stroke-linejoin="round" stroke="rgb(92.156863%, 92.156863%, 92.156863%)" stroke-opacity="1" stroke-miterlimit="10" d="M 345.449219 196 L 345.449219 69.449219 "/>
</g>
<path fill-rule="nonzero" fill="rgb(60.392157%, 80.392157%, 19.607843%)" fill-opacity="1" d="M 88.765625 190.25 L 140.679688 190.25 L 140.679688 75.203125 L 88.765625 75.203125 Z M 88.765625 190.25 "/>
<path fill-rule="nonzero" fill="rgb(60.392157%, 80.392157%, 19.607843%)" fill-opacity="1" d="M 146.445312 90.542969 L 198.359375 90.542969 L 198.359375 75.203125 L 146.445312 75.203125 Z M 146.445312 90.542969 "/>
<path fill-rule="nonzero" fill="rgb(93.333333%, 78.823529%, 0%)" fill-opacity="1" d="M 146.445312 121.21875 L 198.359375 121.21875 L 198.359375 90.539062 L 146.445312 90.539062 Z M 146.445312 121.21875 "/>
<path fill-rule="nonzero" fill="rgb(100%, 54.901961%, 0%)" fill-opacity="1" d="M 146.445312 136.558594 L 198.359375 136.558594 L 198.359375 121.21875 L 146.445312 121.21875 Z M 146.445312 136.558594 "/>
<path fill-rule="nonzero" fill="rgb(80.392157%, 80.392157%, 75.686275%)" fill-opacity="1" d="M 146.445312 190.25 L 198.359375 190.25 L 198.359375 136.5625 L 146.445312 136.5625 Z M 146.445312 190.25 "/>
<path fill-rule="nonzero" fill="rgb(60.392157%, 80.392157%, 19.607843%)" fill-opacity="1" d="M 204.128906 110.214844 L 256.042969 110.214844 L 256.042969 75.199219 L 204.128906 75.199219 Z M 204.128906 110.214844 "/>
<path fill-rule="nonzero" fill="rgb(93.333333%, 78.823529%, 0%)" fill-opacity="1" d="M 204.128906 135.226562 L 256.042969 135.226562 L 256.042969 110.214844 L 204.128906 110.214844 Z M 204.128906 135.226562 "/>
<path fill-rule="nonzero" fill="rgb(100%, 54.901961%, 0%)" fill-opacity="1" d="M 204.128906 160.238281 L 256.042969 160.238281 L 256.042969 135.226562 L 204.128906 135.226562 Z M 204.128906 160.238281 "/>
<path fill-rule="nonzero" fill="rgb(80.392157%, 80.392157%, 75.686275%)" fill-opacity="1" d="M 204.128906 190.25 L 256.042969 190.25 L 256.042969 160.238281 L 204.128906 160.238281 Z M 204.128906 190.25 "/>
<path fill-rule="nonzero" fill="rgb(60.392157%, 80.392157%, 19.607843%)" fill-opacity="1" d="M 261.8125 80.097656 L 313.726562 80.097656 L 313.726562 75.203125 L 261.8125 75.203125 Z M 261.8125 80.097656 "/>
<path fill-rule="nonzero" fill="rgb(93.333333%, 78.823529%, 0%)" fill-opacity="1" d="M 261.8125 143.742188 L 313.726562 143.742188 L 313.726562 80.097656 L 261.8125 80.097656 Z M 261.8125 143.742188 "/>
<path fill-rule="nonzero" fill="rgb(100%, 54.901961%, 0%)" fill-opacity="1" d="M 261.8125 182.90625 L 313.726562 182.90625 L 313.726562 143.742188 L 261.8125 143.742188 Z M 261.8125 182.90625 "/>
<path fill-rule="nonzero" fill="rgb(80.392157%, 80.392157%, 75.686275%)" fill-opacity="1" d="M 261.8125 190.25 L 313.726562 190.25 L 313.726562 182.90625 L 261.8125 182.90625 Z M 261.8125 190.25 "/>
<path fill-rule="nonzero" fill="rgb(60.392157%, 80.392157%, 19.607843%)" fill-opacity="1" d="M 319.492188 94.375 L 371.40625 94.375 L 371.40625 75.199219 L 319.492188 75.199219 Z M 319.492188 94.375 "/>
<path fill-rule="nonzero" fill="rgb(93.333333%, 78.823529%, 0%)" fill-opacity="1" d="M 319.492188 151.898438 L 371.40625 151.898438 L 371.40625 94.375 L 319.492188 94.375 Z M 319.492188 151.898438 "/>
<path fill-rule="nonzero" fill="rgb(100%, 54.901961%, 0%)" fill-opacity="1" d="M 319.492188 186.414062 L 371.40625 186.414062 L 371.40625 151.898438 L 319.492188 151.898438 Z M 319.492188 186.414062 "/>
<path fill-rule="nonzero" fill="rgb(80.392157%, 80.392157%, 75.686275%)" fill-opacity="1" d="M 319.492188 190.25 L 371.40625 190.25 L 371.40625 186.414062 L 319.492188 186.414062 Z M 319.492188 190.25 "/>
<g fill="rgb(30.196078%, 30.196078%, 30.196078%)" fill-opacity="1">
<use xlink:href="#glyph-0-0" x="15.941406" y="199.910156"/>
<use xlink:href="#glyph-0-1" x="30.178906" y="199.910156"/>
<use xlink:href="#glyph-0-0" x="37.291406" y="199.910156"/>
<use xlink:href="#glyph-0-0" x="51.528906" y="199.910156"/>
</g>
<g fill="rgb(30.196078%, 30.196078%, 30.196078%)" fill-opacity="1">
<use xlink:href="#glyph-0-0" x="15.941406" y="171.148438"/>
<use xlink:href="#glyph-0-1" x="30.178906" y="171.148438"/>
<use xlink:href="#glyph-0-2" x="37.291406" y="171.148438"/>
<use xlink:href="#glyph-0-3" x="51.528906" y="171.148438"/>
</g>
<g fill="rgb(30.196078%, 30.196078%, 30.196078%)" fill-opacity="1">
<use xlink:href="#glyph-0-0" x="15.941406" y="142.386719"/>
<use xlink:href="#glyph-0-1" x="30.178906" y="142.386719"/>
<use xlink:href="#glyph-0-3" x="37.291406" y="142.386719"/>
<use xlink:href="#glyph-0-0" x="51.528906" y="142.386719"/>
</g>
<g fill="rgb(30.196078%, 30.196078%, 30.196078%)" fill-opacity="1">
<use xlink:href="#glyph-0-0" x="15.941406" y="113.625"/>
<use xlink:href="#glyph-0-1" x="30.178906" y="113.625"/>
<use xlink:href="#glyph-0-4" x="37.291406" y="113.625"/>
<use xlink:href="#glyph-0-3" x="51.528906" y="113.625"/>
</g>
<g fill="rgb(30.196078%, 30.196078%, 30.196078%)" fill-opacity="1">
<use xlink:href="#glyph-0-5" x="15.941406" y="84.863281"/>
<use xlink:href="#glyph-0-1" x="30.178906" y="84.863281"/>
<use xlink:href="#glyph-0-0" x="37.291406" y="84.863281"/>
<use xlink:href="#glyph-0-0" x="51.528906" y="84.863281"/>
</g>
<g fill="rgb(30.196078%, 30.196078%, 30.196078%)" fill-opacity="1">
<use xlink:href="#glyph-0-6" x="96.941406" y="229.671875"/>
<use xlink:href="#glyph-0-7" x="118.266406" y="229.671875"/>
</g>
<g fill="rgb(30.196078%, 30.196078%, 30.196078%)" fill-opacity="1">
<use xlink:href="#glyph-0-8" x="161.726562" y="229.671875"/>
<use xlink:href="#glyph-0-7" x="168.839063" y="229.671875"/>
</g>
<g fill="rgb(30.196078%, 30.196078%, 30.196078%)" fill-opacity="1">
<use xlink:href="#glyph-0-9" x="216.578125" y="229.671875"/>
<use xlink:href="#glyph-0-6" x="222.265625" y="229.671875"/>
</g>
<g fill="rgb(30.196078%, 30.196078%, 30.196078%)" fill-opacity="1">
<use xlink:href="#glyph-0-10" x="274.25" y="229.671875"/>
<use xlink:href="#glyph-0-11" x="287.05" y="229.671875"/>
</g>
<g fill="rgb(30.196078%, 30.196078%, 30.196078%)" fill-opacity="1">
<use xlink:href="#glyph-0-6" x="327.667969" y="229.671875"/>
<use xlink:href="#glyph-0-12" x="348.992969" y="229.671875"/>
</g>
<g fill="rgb(0%, 0%, 0%)" fill-opacity="1">
<use xlink:href="#glyph-1-0" x="80.113281" y="44.425781"/>
<use xlink:href="#glyph-1-1" x="107.844531" y="44.425781"/>
<use xlink:href="#glyph-1-2" x="129.200781" y="44.425781"/>
</g>
</svg>
